<svg viewBox="0 0 772 231" fill="none" xmlns="http://www.w3.org/2000/svg">
<path fill-rule="evenodd" clip-rule="evenodd" d="M93.3981 40.623C89.377 40.7086 86.8532 42.6336 85.8266 46.3979L40.7827 222.852C40.2694 225.076 40.4833 227.001 41.4244 228.627C42.3655 230.166 43.9054 230.936 46.0443 230.936H53.7441C57.9362 230.936 60.5456 229.012 61.5722 225.162L95.9647 90.2868L119.192 222.852C119.278 223.194 119.364 223.793 119.449 224.648C119.62 225.504 119.877 226.573 120.219 227.857C120.818 229.91 122.23 230.936 124.454 230.936H133.822C138.1 230.936 140.752 229.012 141.778 225.162L186.694 48.8362C187.207 46.6118 186.993 44.6868 186.052 43.0613C185.111 41.4358 183.571 40.623 181.432 40.623H173.861C169.583 40.623 166.931 42.548 165.905 46.3979L131.384 181.914L108.156 48.8362C107.129 43.3608 104.862 40.623 101.355 40.623H93.3981ZM257.655 76.5338H271.116V120.014C271.191 119.893 271.267 119.772 271.344 119.652C273.422 116.357 276.008 113.848 279.101 112.124C282.193 110.4 285.869 109.538 290.127 109.538C294.487 109.538 298.34 110.299 301.687 111.82C305.083 113.341 307.922 115.698 310.204 118.892C312.536 122.035 314.285 126.066 315.451 130.983C316.668 135.85 317.276 141.681 317.276 148.474V156.155C317.276 162.644 316.668 168.323 315.451 173.19C314.285 178.006 312.536 182.036 310.204 185.281C307.872 188.475 305.033 190.883 301.687 192.506C298.34 194.077 294.513 194.863 290.203 194.863C285.945 194.863 282.269 194.001 279.177 192.277C276.084 190.554 273.498 188.069 271.42 184.825C271.164 184.425 270.914 184.015 270.671 183.594L269.975 193.342H257.655V76.5338ZM271.116 132.675V171.819C271.239 172.099 271.366 172.379 271.496 172.657C272.966 175.648 274.943 178.107 277.428 180.034C279.912 181.96 283.004 182.924 286.705 182.924C289.798 182.924 292.409 182.391 294.538 181.327C296.718 180.262 298.493 178.64 299.861 176.46C301.23 174.229 302.219 171.44 302.827 168.094C303.486 164.698 303.816 160.718 303.816 156.155V148.474C303.816 143.911 303.512 139.932 302.903 136.535C302.346 133.138 301.408 130.324 300.09 128.094C298.771 125.863 296.997 124.19 294.766 123.075C292.586 121.959 289.874 121.402 286.629 121.402C283.892 121.402 281.483 121.959 279.405 123.075C277.377 124.19 275.628 125.711 274.158 127.637C272.981 129.138 271.967 130.817 271.116 132.675ZM185.259 111.059L209.505 192.595L207.084 200.795C206.172 204.191 205.056 206.853 203.738 208.78C202.42 210.757 200.823 212.151 198.947 212.962C197.122 213.824 194.891 214.255 192.255 214.255C191.951 214.255 191.469 214.204 190.81 214.103C190.151 214.052 189.669 214.001 189.365 213.951V225.358C190.024 225.561 191.089 225.814 192.559 226.118C194.08 226.422 195.322 226.575 196.285 226.575C199.429 226.575 202.166 225.89 204.498 224.521C206.831 223.203 208.833 221.479 210.506 219.35C212.179 217.221 213.548 214.965 214.613 212.582C215.728 210.25 216.615 208.07 217.274 206.042L244.423 111.059H230.126L215.255 170.913L199.936 111.059H185.259ZM347.923 76.5338H334.463V193.342H346.782L347.479 183.594C347.722 184.015 347.971 184.425 348.227 184.825C350.306 188.069 352.892 190.554 355.984 192.277C359.077 194.001 362.752 194.863 367.011 194.863C371.32 194.863 375.148 194.077 378.494 192.506C381.84 190.883 384.679 188.475 387.011 185.281C389.343 182.036 391.092 178.006 392.259 173.19C393.475 168.323 394.084 162.644 394.084 156.155V148.474C394.084 141.681 393.475 135.85 392.259 130.983C391.092 126.066 389.343 122.035 387.011 118.892C384.73 115.698 381.891 113.341 378.494 111.82C375.148 110.299 371.295 109.538 366.935 109.538C362.676 109.538 359.001 110.4 355.908 112.124C352.815 113.848 350.23 116.357 348.151 119.652C348.075 119.772 347.999 119.893 347.923 120.014V76.5338ZM347.923 171.819V132.675C348.775 130.817 349.789 129.138 350.965 127.637C352.435 125.711 354.184 124.19 356.212 123.075C358.291 121.959 360.699 121.402 363.437 121.402C366.681 121.402 369.394 121.959 371.574 123.075C373.804 124.19 375.579 125.863 376.897 128.094C378.215 130.324 379.153 133.138 379.711 136.535C380.319 139.932 380.623 143.911 380.623 148.474V156.155C380.623 160.718 380.294 164.698 379.635 168.094C379.026 171.44 378.038 174.229 376.669 176.46C375.3 178.64 373.526 180.262 371.346 181.327C369.216 182.391 366.605 182.924 363.513 182.924C359.812 182.924 356.719 181.96 354.235 180.034C351.751 178.107 349.774 175.648 348.303 172.657C348.173 172.379 348.047 172.099 347.923 171.819ZM425.719 76.5338V193.342H412.335V76.5338H425.719ZM463.134 192.658C467.089 194.128 471.525 194.863 476.443 194.863C481.208 194.863 485.289 194.28 488.686 193.114C492.134 191.897 495.023 190.351 497.355 188.475C499.738 186.549 501.665 184.546 503.135 182.467L496.063 174.026C493.883 176.764 491.322 179.02 488.382 180.794C485.441 182.518 481.715 183.38 477.203 183.38C474.11 183.38 471.347 182.898 468.914 181.935C466.531 180.921 464.503 179.4 462.83 177.372C461.208 175.294 459.966 172.683 459.104 169.539C458.293 166.345 457.887 162.543 457.887 158.132V156.155H503.743V148.322C503.743 142.036 503.186 136.484 502.07 131.668C501.006 126.852 499.333 122.796 497.051 119.5C494.77 116.205 491.804 113.721 488.154 112.048C484.504 110.375 480.093 109.538 474.922 109.538C471.069 109.538 467.317 110.248 463.667 111.668C460.016 113.036 456.746 115.267 453.857 118.36C450.967 121.402 448.66 125.432 446.936 130.451C445.263 135.47 444.427 141.605 444.427 148.855V158.132C444.427 164.419 445.162 169.869 446.632 174.482C448.102 179.096 450.232 182.924 453.02 185.965C455.808 188.957 459.18 191.187 463.134 192.658ZM457.972 144.672C458.13 140.982 458.507 137.814 459.104 135.166C459.966 131.567 461.132 128.753 462.602 126.725C464.123 124.646 465.923 123.201 468.001 122.39C470.131 121.528 472.437 121.097 474.922 121.097C478.825 121.097 481.842 122.035 483.971 123.911C486.1 125.736 487.621 128.271 488.534 131.516C489.497 134.76 490.08 138.512 490.283 142.771V144.672H457.972Z" fill="black"/>
<path fill-rule="evenodd" clip-rule="evenodd" d="M104.725 32.2229L112.78 0H88.6131L80.5574 32.2229H56.3902L64.4459 0H40.2787L32.2229 32.2229H8.05574L0 64.4459H24.1672L16.1115 96.6688H40.2787L48.3344 64.4459H72.5016L80.5574 32.2229H104.725ZM48.3344 64.4459H24.1672L32.2229 32.2229H56.3902L48.3344 64.4459ZM593.89 161.77H581.345C580.936 167.042 580.072 171.315 578.754 174.588C577.482 177.86 575.504 180.247 572.823 181.747C570.141 183.247 566.505 183.997 561.914 183.997C558.278 183.997 555.187 183.201 552.641 181.61C550.096 180.019 548.028 177.815 546.437 174.997C544.891 172.133 543.755 168.815 543.028 165.042C542.346 161.27 542.005 157.202 542.005 152.838V134.361C542.005 129.68 542.414 125.453 543.232 121.68C544.096 117.862 545.369 114.612 547.051 111.93C548.778 109.203 550.96 107.112 553.596 105.658C556.278 104.203 559.437 103.476 563.073 103.476C567.164 103.476 570.482 104.271 573.027 105.862C575.618 107.408 577.572 109.839 578.891 113.157C580.209 116.43 581.027 120.68 581.345 125.907H593.89C593.617 118.771 592.254 112.748 589.799 107.839C587.39 102.885 583.936 99.1351 579.436 96.5897C574.982 93.9989 569.527 92.7035 563.073 92.7035C557.8 92.7035 553.073 93.6807 548.891 95.6352C544.755 97.5897 541.232 100.408 538.323 104.09C535.46 107.726 533.255 112.112 531.71 117.248C530.21 122.385 529.46 128.134 529.46 134.498V152.838C529.46 159.247 530.21 165.02 531.71 170.156C533.21 175.292 535.369 179.701 538.187 183.383C541.051 187.019 544.482 189.815 548.482 191.769C552.482 193.724 556.959 194.701 561.914 194.701C568.823 194.701 574.573 193.383 579.163 190.746C583.8 188.11 587.322 184.337 589.731 179.428C592.186 174.474 593.572 168.588 593.89 161.77ZM606.708 152.975V159.997C606.708 165.724 607.435 170.77 608.89 175.133C610.344 179.451 612.367 183.065 614.958 185.974C617.594 188.883 620.64 191.065 624.094 192.519C627.548 193.974 631.276 194.701 635.276 194.701C639.275 194.701 643.003 193.974 646.457 192.519C649.911 191.065 652.934 188.883 655.525 185.974C658.116 183.065 660.139 179.451 661.593 175.133C663.048 170.77 663.775 165.724 663.775 159.997V152.975C663.775 147.247 663.048 142.225 661.593 137.907C660.139 133.543 658.093 129.907 655.457 126.998C652.866 124.089 649.843 121.907 646.389 120.453C642.934 118.953 639.185 118.203 635.139 118.203C631.185 118.203 627.48 118.953 624.026 120.453C620.571 121.907 617.549 124.089 614.958 126.998C612.367 129.907 610.344 133.543 608.89 137.907C607.435 142.225 606.708 147.247 606.708 152.975ZM618.776 159.997V152.975C618.776 148.929 619.185 145.407 620.003 142.407C620.821 139.361 621.958 136.816 623.412 134.771C624.912 132.68 626.662 131.134 628.662 130.134C630.662 129.089 632.821 128.566 635.139 128.566C637.503 128.566 639.685 129.089 641.684 130.134C643.73 131.134 645.503 132.68 647.003 134.771C648.502 136.816 649.661 139.361 650.48 142.407C651.298 145.407 651.707 148.929 651.707 152.975V159.997C651.707 164.043 651.366 167.588 650.684 170.633C650.002 173.679 648.98 176.224 647.616 178.269C646.253 180.315 644.525 181.86 642.434 182.906C640.389 183.906 638.003 184.406 635.276 184.406C632.912 184.406 630.73 183.906 628.73 182.906C626.73 181.86 624.98 180.315 623.48 178.269C621.98 176.224 620.821 173.679 620.003 170.633C619.185 167.588 618.776 164.043 618.776 159.997ZM691.388 193.337V140.392C692.07 138.537 692.934 136.914 693.979 135.521C695.206 133.884 696.66 132.612 698.342 131.702C700.069 130.793 702.069 130.339 704.342 130.339C705.387 130.339 706.296 130.384 707.069 130.475C707.887 130.521 708.796 130.657 709.796 130.884L709.728 119.157C709.41 118.93 708.705 118.726 707.615 118.544C706.569 118.316 705.683 118.203 704.956 118.203C701.683 118.203 698.865 119.066 696.501 120.794C694.417 122.306 692.663 124.369 691.24 126.984L690.979 119.566H679.32V193.337H691.388ZM734.955 192.724C738.5 194.042 742.477 194.701 746.886 194.701C751.159 194.701 754.818 194.178 757.863 193.133C760.954 192.042 763.545 190.655 765.636 188.974C767.772 187.246 769.499 185.451 770.818 183.587L764.477 176.019C762.522 178.474 760.227 180.497 757.591 182.088C754.954 183.633 751.613 184.406 747.568 184.406C744.795 184.406 742.318 183.974 740.136 183.11C738 182.201 736.182 180.838 734.682 179.019C733.228 177.156 732.114 174.815 731.341 171.997C730.614 169.133 730.25 165.724 730.25 161.77V159.997H771.363V152.975C771.363 147.338 770.863 142.361 769.863 138.043C768.908 133.725 767.409 130.089 765.363 127.134C763.318 124.18 760.659 121.953 757.386 120.453C754.113 118.953 750.159 118.203 745.523 118.203C742.068 118.203 738.705 118.839 735.432 120.112C732.159 121.339 729.228 123.339 726.637 126.112C724.046 128.839 721.978 132.452 720.432 136.952C718.932 141.452 718.182 146.952 718.182 153.452V161.77C718.182 167.406 718.842 172.292 720.16 176.429C721.478 180.565 723.387 183.997 725.887 186.724C728.387 189.406 731.409 191.405 734.955 192.724ZM730.327 149.702C730.468 146.394 730.806 143.553 731.341 141.179C732.114 137.952 733.159 135.43 734.478 133.611C735.841 131.748 737.455 130.452 739.318 129.725C741.227 128.953 743.295 128.566 745.523 128.566C749.023 128.566 751.727 129.407 753.636 131.089C755.545 132.725 756.909 134.998 757.727 137.907C758.591 140.816 759.113 144.179 759.295 147.997V149.702H730.327Z" fill="#EF4E22"/>
</svg>
